<mxfile host="app.diagrams.net" modified="2023-11-25T04:40:25.596Z" agent="Mozilla/5.0 (Windows NT 10.0; Win64; x64) AppleWebKit/537.36 (KHTML, like Gecko) Chrome/116.0.0.0 Safari/537.36 OPR/102.0.0.0" etag="3apNcul7O3quH5T0Q36R" version="22.1.4" type="device">
  <diagram name="Page-1" id="JSPNPDyqVpg5QIc2BPgl">
    <mxGraphModel dx="872" dy="746" grid="1" gridSize="10" guides="1" tooltips="1" connect="1" arrows="1" fold="1" page="1" pageScale="1" pageWidth="850" pageHeight="1100" math="0" shadow="0">
      <root>
        <mxCell id="0" />
        <mxCell id="1" parent="0" />
        <mxCell id="YRZwBfXiU1NVOLiyAA2w-3" value="" style="whiteSpace=wrap;html=1;aspect=fixed;" vertex="1" parent="1">
          <mxGeometry x="240" y="50" width="500" height="500" as="geometry" />
        </mxCell>
        <mxCell id="YRZwBfXiU1NVOLiyAA2w-12" style="edgeStyle=orthogonalEdgeStyle;rounded=0;orthogonalLoop=1;jettySize=auto;html=1;entryX=0;entryY=0.5;entryDx=0;entryDy=0;" edge="1" parent="1" source="YRZwBfXiU1NVOLiyAA2w-1" target="YRZwBfXiU1NVOLiyAA2w-5">
          <mxGeometry relative="1" as="geometry" />
        </mxCell>
        <mxCell id="YRZwBfXiU1NVOLiyAA2w-13" style="edgeStyle=orthogonalEdgeStyle;rounded=0;orthogonalLoop=1;jettySize=auto;html=1;" edge="1" parent="1" source="YRZwBfXiU1NVOLiyAA2w-1" target="YRZwBfXiU1NVOLiyAA2w-6">
          <mxGeometry relative="1" as="geometry" />
        </mxCell>
        <mxCell id="YRZwBfXiU1NVOLiyAA2w-14" style="edgeStyle=orthogonalEdgeStyle;rounded=0;orthogonalLoop=1;jettySize=auto;html=1;" edge="1" parent="1" source="YRZwBfXiU1NVOLiyAA2w-1" target="YRZwBfXiU1NVOLiyAA2w-11">
          <mxGeometry relative="1" as="geometry" />
        </mxCell>
        <mxCell id="YRZwBfXiU1NVOLiyAA2w-15" style="edgeStyle=orthogonalEdgeStyle;rounded=0;orthogonalLoop=1;jettySize=auto;html=1;entryX=0;entryY=0.5;entryDx=0;entryDy=0;" edge="1" parent="1" source="YRZwBfXiU1NVOLiyAA2w-1" target="YRZwBfXiU1NVOLiyAA2w-4">
          <mxGeometry relative="1" as="geometry" />
        </mxCell>
        <mxCell id="YRZwBfXiU1NVOLiyAA2w-1" value="" style="shape=actor;whiteSpace=wrap;html=1;" vertex="1" parent="1">
          <mxGeometry x="100" y="260" width="50" height="110" as="geometry" />
        </mxCell>
        <mxCell id="YRZwBfXiU1NVOLiyAA2w-20" style="edgeStyle=orthogonalEdgeStyle;rounded=0;orthogonalLoop=1;jettySize=auto;html=1;" edge="1" parent="1" source="YRZwBfXiU1NVOLiyAA2w-2" target="YRZwBfXiU1NVOLiyAA2w-8">
          <mxGeometry relative="1" as="geometry" />
        </mxCell>
        <mxCell id="YRZwBfXiU1NVOLiyAA2w-21" style="edgeStyle=orthogonalEdgeStyle;rounded=0;orthogonalLoop=1;jettySize=auto;html=1;entryX=1;entryY=0.5;entryDx=0;entryDy=0;" edge="1" parent="1" source="YRZwBfXiU1NVOLiyAA2w-2" target="YRZwBfXiU1NVOLiyAA2w-7">
          <mxGeometry relative="1" as="geometry" />
        </mxCell>
        <mxCell id="YRZwBfXiU1NVOLiyAA2w-22" style="edgeStyle=orthogonalEdgeStyle;rounded=0;orthogonalLoop=1;jettySize=auto;html=1;entryX=1;entryY=0.5;entryDx=0;entryDy=0;" edge="1" parent="1" source="YRZwBfXiU1NVOLiyAA2w-2" target="YRZwBfXiU1NVOLiyAA2w-10">
          <mxGeometry relative="1" as="geometry" />
        </mxCell>
        <mxCell id="YRZwBfXiU1NVOLiyAA2w-23" style="edgeStyle=orthogonalEdgeStyle;rounded=0;orthogonalLoop=1;jettySize=auto;html=1;entryX=1;entryY=0.5;entryDx=0;entryDy=0;" edge="1" parent="1" source="YRZwBfXiU1NVOLiyAA2w-2" target="YRZwBfXiU1NVOLiyAA2w-9">
          <mxGeometry relative="1" as="geometry" />
        </mxCell>
        <mxCell id="YRZwBfXiU1NVOLiyAA2w-2" value="" style="shape=actor;whiteSpace=wrap;html=1;" vertex="1" parent="1">
          <mxGeometry x="790" y="245" width="60" height="110" as="geometry" />
        </mxCell>
        <mxCell id="YRZwBfXiU1NVOLiyAA2w-4" value="Delete Client" style="ellipse;whiteSpace=wrap;html=1;aspect=fixed;" vertex="1" parent="1">
          <mxGeometry x="310" y="440" width="80" height="80" as="geometry" />
        </mxCell>
        <mxCell id="YRZwBfXiU1NVOLiyAA2w-5" value="Create client account" style="ellipse;whiteSpace=wrap;html=1;aspect=fixed;" vertex="1" parent="1">
          <mxGeometry x="310" y="100" width="80" height="80" as="geometry" />
        </mxCell>
        <mxCell id="YRZwBfXiU1NVOLiyAA2w-6" value="Open account" style="ellipse;whiteSpace=wrap;html=1;aspect=fixed;" vertex="1" parent="1">
          <mxGeometry x="310" y="210" width="80" height="80" as="geometry" />
        </mxCell>
        <mxCell id="YRZwBfXiU1NVOLiyAA2w-7" value="Deposit" style="ellipse;whiteSpace=wrap;html=1;aspect=fixed;" vertex="1" parent="1">
          <mxGeometry x="610" y="100" width="80" height="80" as="geometry" />
        </mxCell>
        <mxCell id="YRZwBfXiU1NVOLiyAA2w-8" value="Withdraw" style="ellipse;whiteSpace=wrap;html=1;aspect=fixed;" vertex="1" parent="1">
          <mxGeometry x="610" y="210" width="80" height="80" as="geometry" />
        </mxCell>
        <mxCell id="YRZwBfXiU1NVOLiyAA2w-9" value="Make Transaction" style="ellipse;whiteSpace=wrap;html=1;aspect=fixed;" vertex="1" parent="1">
          <mxGeometry x="610" y="430" width="80" height="80" as="geometry" />
        </mxCell>
        <mxCell id="YRZwBfXiU1NVOLiyAA2w-10" value="ViewAccount" style="ellipse;whiteSpace=wrap;html=1;aspect=fixed;" vertex="1" parent="1">
          <mxGeometry x="610" y="320" width="80" height="80" as="geometry" />
        </mxCell>
        <mxCell id="YRZwBfXiU1NVOLiyAA2w-11" value="Close account" style="ellipse;whiteSpace=wrap;html=1;aspect=fixed;" vertex="1" parent="1">
          <mxGeometry x="310" y="320" width="80" height="80" as="geometry" />
        </mxCell>
        <mxCell id="YRZwBfXiU1NVOLiyAA2w-24" value="Fostis bank use case by Viet" style="rounded=1;whiteSpace=wrap;html=1;" vertex="1" parent="1">
          <mxGeometry x="430" y="50" width="120" height="60" as="geometry" />
        </mxCell>
      </root>
    </mxGraphModel>
  </diagram>
</mxfile>
